<?xml version="1.0" encoding="UTF-8" standalone="no"?>
<!-- Generator: Adobe Illustrator 21.1.0, SVG Export Plug-In . SVG Version: 6.00 Build 0)  -->

<svg
   xmlns:xlink="http://www.w3.org/1999/xlink"
   xmlns:dc="http://purl.org/dc/elements/1.1/"
   xmlns:cc="http://creativecommons.org/ns#"
   xmlns:rdf="http://www.w3.org/1999/02/22-rdf-syntax-ns#"
   xmlns:svg="http://www.w3.org/2000/svg"
   xmlns="http://www.w3.org/2000/svg"
   xmlns:sodipodi="http://sodipodi.sourceforge.net/DTD/sodipodi-0.dtd"
   xmlns:inkscape="http://www.inkscape.org/namespaces/inkscape"
   version="1.1"
   id="Layer_1"
   x="0px"
   y="0px"
   viewBox="0 0 1800 720"
   style="enable-background:new 0 0 1800 720;"
   xml:space="preserve"
   sodipodi:docname="logo-name.svg"
   inkscape:version="0.92.1 r15371"><metadata
     id="metadata19"><rdf:RDF><cc:Work
         rdf:about=""><dc:format>image/svg+xml</dc:format><dc:type
           rdf:resource="http://purl.org/dc/dcmitype/StillImage" /><dc:title></dc:title></cc:Work></rdf:RDF></metadata><defs
     id="defs17" /><sodipodi:namedview
     pagecolor="#ffffff"
     bordercolor="#666666"
     borderopacity="1"
     objecttolerance="10"
     gridtolerance="10"
     guidetolerance="10"
     inkscape:pageopacity="0"
     inkscape:pageshadow="2"
     inkscape:window-width="1920"
     inkscape:window-height="1017"
     id="namedview15"
     showgrid="false"
     inkscape:zoom="0.45097699"
     inkscape:cx="1236.5065"
     inkscape:cy="287.37424"
     inkscape:window-x="-8"
     inkscape:window-y="-8"
     inkscape:window-maximized="1"
     inkscape:current-layer="Layer_1" /><style
     type="text/css"
     id="style2">
	.st0{fill:#FFFFFF;}
	.st1{fill:#FFFFFF;stroke:#000000;stroke-opacity:0;}
	.st2{fill:#001500;}
	.st3{font-family:'Xtreem2PersonalUse';}
	.st4{font-size:411.4391px;}
</style><g
     id="g16"><path
       id="path6"
       class="st0"
       d="M811.1,183.5" /><path
       id="path8"
       class="st0"
       d="M832.6,165.2" /><path
       id="path10"
       class="st0"
       d="M862.8,202.3" /><path
       id="path12"
       class="st0"
       d="M848.6,185.2" /><path
       id="path14"
       class="st0"
       d="M889.9,237c0,0.2,0,0.4,0,0.5l-0.1,0.1L889.9,237z" /></g><path
     id="path18"
     inkscape:export-xdpi="96"
     inkscape:export-ydpi="96"
     class="st1"
     d="M363.8,43c-177,0-320.5,142.1-320.5,317.5  S186.8,678,363.8,678c80.7,0,154.3-29.5,210.7-78.2c-14.6-7.4-29.3-14.7-43.9-22.1c-7.2-3.6-14.3-7.2-21.5-10.8  c-29.2,3.6-60.8,6.4-94.6,7.8c-29.6,1.3-57.6,1.3-83.8,0.5c-10.3-8-24-19.1-39.6-33c-25.3-22.5-42.7-40.9-57.6-56.8  c-27.4-29.2-47.4-53.4-72-83.2c-12.8-15.6-23.3-28.6-30.3-37.4c3.1-2.6,7.9-6.1,14.5-9.1c8.2-3.8,14.4-6.6,21.5-5  c2,0.4,7.1,3.1,17.3,8.4c2,1,4,2.1,5,2.6c9.9,5.3,26.3,14.8,56.4,35.2c6.3,4.2,17.4,12,39.7,27.5c13.8,9.5,25.1,17.5,32.7,22.8  c-0.9,5.7-1.7,17.3,3.6,30.2c3,7.4,7.1,12.8,10.3,16.4c7.9,2,14.9,3.7,21,5c14.6,3.2,27.4,5.9,44.1,7.1c2.7,0.2,10.7,0.8,21.2,0.7  c7.1,0,13.4-0.3,18.6-0.7c0.6-1.2,1.8-4.4,1-8.4c-0.5-2-1.3-3.6-2-4.6c-6.1,0-14.6-0.1-24.9-0.6c-16.6-0.7-26.2-1.1-37.8-3.1  c-8.9-1.5-21.2-4.4-35.6-10.1c-1.6-3.2-3.6-8-4.6-14c-1.2-6.6-0.8-12.3-0.2-16.1c11-3.4,22.6-6.7,34.8-9.7  c21.1-5.2,41.1-9,59.7-11.7c13.2-2.3,30.8-3.8,51.1-1.3c10.2,1.3,19.3,3.3,27.2,5.6c7.2,2.2,16.2,5.6,26,11.2  c10.2,5.9,17.9,12.3,23.4,17.6c16.1,15.5,33,30.3,49.2,45.7c6.5,6.2,16.3,15.4,28.6,26.4c32.4-49.6,51.3-108.8,51.3-172.3  C684.3,185.1,540.8,43,363.8,43z M372.9,166.2c9-5.7,17.7-7.8,24.7-9.5c4.3-1,7.5-1.5,11.1-2.1c9-1.4,16.6-2,22-2.3  c1.2,17.8-2,31.7-4.7,40.2c-2.8,8.8-5.8,17.8-13.7,26.8c-7.6,8.5-16,12.7-22.7,16.1c-10.3,5.2-19.5,7.5-25.8,8.7  c1.3-8.6,2.1-20.1,0.8-33.5c-1.2-12.6-4.1-23.1-6.8-31.1C363.4,172.8,369,168.7,372.9,166.2z M433.6,409.4  c-14.2,1.3-24.1,2.2-35.7,4.1c-9.9,1.7-17.3,3.6-32.3,7.5c-9.3,2.4-22,5.8-37.2,10.5L261,384.4c14.7-8.9,25.1-17,32.1-22.9  c3.2-2.8,7.7-6.7,14.7-10.7c8.2-4.7,15.7-7.2,21-8.5l1.8-82.3c-13-5.5-22.8-12-29.6-17.1c-6.8-5.1-15.6-11.9-24.2-23.5  c-8.8-11.9-12.8-22.8-14.1-26.8c-3.5-10.2-4.3-18.5-4.8-23.2c-0.8-8.8-0.5-15.3,0.1-23.8c0.5-7.7,1.6-18,3.9-30.2  c7.3,2.2,15.6,5.2,24.5,9.4c7.8,3.7,14.7,7.6,20.6,11.4c4.4,2.9,9.4,6.5,14.4,10.9c7.1,6.2,12.7,12.6,16.9,18.1  c3.4,4.9,7.6,11.9,10.6,21c2.2,6.8,2.9,12,3.7,17.8c0.5,3.8,2.7,22.4-1.5,47.7c-0.6,3.6-1.2,6.5-1.6,8.3  c-5-16.8-12.4-36.6-23.7-57.8c-7.5-14.2-15.6-26.5-23.2-37c2.8-2.7,5.9-6.1,8.8-10.4c1.3-1.9,2.4-3.8,3.3-5.5  c-2.3,2.3-4.6,4.6-7,6.9c-2.4,2.3-4.7,4.4-7.1,6.5c-2.8-3.4-6-7-9.7-10.7c-4.8-4.8-9.6-8.9-14-12.2c4.5,5.2,9.1,10.5,13.6,16.1  c2.5,3.1,5,6.2,7.4,9.3c-3,2.9-6.4,6.1-10.4,9.2c-4,3.2-7.8,5.8-11.3,8.1c4.6-2,9.9-4.7,15.3-8.4c3.1-2.1,5.8-4.2,8.3-6.3  c9.7,14,17.2,26.3,22.8,36c3.8,6.6,8.9,15.5,14.8,27.9c5.2,11,9.2,20.7,12.1,28.3l0.7,81.7c2.8,0.3,6.7,0.8,11.3,2.1  c9.5,2.7,16.1,7.1,20.8,10.3c11,7.6,16.5,11.4,25.8,20s23.7,20.5,45.2,33.8C448.6,408.2,441.8,408.7,433.6,409.4z" /><path
     id="path28"
     class="st2"
     d="M885.8,260" /><text
     transform="matrix(1 0 0 1 683.999 436.3975)"
     class="st0 st3 st4"
     id="text12">Esperança</text>
</svg>